<svg xmlns="http://www.w3.org/2000/svg" xmlns:xlink="http://www.w3.org/1999/xlink" width="500" zoomAndPan="magnify" viewBox="0 0 375 374.999991" height="500" preserveAspectRatio="xMidYMid meet" version="1.0"><defs><clipPath id="e8e9c7ae8a"><path d="M 0 0.335938 L 375 0.335938 L 375 374.664062 L 0 374.664062 Z M 0 0.335938 " clip-rule="nonzero"/></clipPath><clipPath id="a0a3f0d41e"><path d="M 37.46875 146.871094 L 9.558594 160.109375 C 8.617188 160.554688 7.652344 160.761719 6.683594 160.761719 C 4.179688 160.761719 1.800781 159.351562 0.652344 156.949219 C -0.941406 153.609375 0.496094 149.613281 3.8125 148.046875 L 25.953125 137.550781 L 21.28125 133.789062 C 18.410156 131.4375 17.964844 127.234375 20.289062 124.363281 C 22.613281 121.492188 26.816406 121.074219 29.6875 123.371094 L 39.351562 131.203125 L 49.925781 126.191406 L 45.617188 122.71875 C 42.746094 120.394531 42.300781 116.191406 44.625 113.316406 C 46.949219 110.445312 51.179688 110 54.023438 112.324219 L 63.320312 119.84375 L 73.894531 114.832031 L 69.976562 111.671875 C 67.105469 109.324219 66.664062 105.117188 68.984375 102.246094 C 71.308594 99.402344 75.515625 98.957031 78.386719 101.253906 L 87.289062 108.488281 L 125.492188 90.367188 C 125.515625 90.367188 125.542969 90.367188 125.59375 90.367188 L 122.855469 84.359375 L 140.582031 76.292969 C 140.480469 77.703125 140.375 79.113281 140.375 80.546875 L 140.375 105.773438 L 133.925781 108.695312 L 131.105469 102.507812 L 98.804688 117.808594 L 101.597656 120.082031 C 104.472656 122.40625 104.914062 126.609375 102.589844 129.480469 C 101.285156 131.125 99.351562 131.960938 97.394531 131.960938 C 95.90625 131.960938 94.445312 131.464844 93.191406 130.472656 L 85.410156 124.152344 L 74.835938 129.167969 L 77.261719 131.152344 C 80.136719 133.449219 80.578125 137.679688 78.253906 140.527344 C 76.925781 142.171875 74.992188 143.007812 73.058594 143.007812 C 71.570312 143.007812 70.082031 142.535156 68.855469 141.519531 L 61.441406 135.511719 L 50.863281 140.527344 L 52.925781 142.195312 C 55.800781 144.519531 56.21875 148.726562 53.917969 151.597656 C 52.589844 153.214844 50.65625 154.078125 48.699219 154.078125 C 47.234375 154.078125 45.746094 153.582031 44.492188 152.589844 Z M 230.589844 358.503906 C 232.128906 361.84375 230.667969 365.8125 227.324219 367.355469 C 216.777344 372.210938 205.523438 374.664062 193.851562 374.664062 C 181.1875 374.664062 168.574219 371.636719 157.371094 365.917969 C 154.109375 364.222656 152.804688 360.199219 154.472656 356.910156 C 156.144531 353.644531 160.191406 352.339844 163.484375 354.011719 C 181.527344 363.253906 203.300781 363.671875 221.738281 355.238281 C 225.078125 353.671875 229.046875 355.160156 230.589844 358.503906 Z M 146.511719 345.394531 C 146.851562 346.179688 147.058594 347.066406 147.058594 347.929688 C 147.058594 349.730469 146.378906 351.402344 145.125 352.679688 C 143.847656 353.933594 142.175781 354.613281 140.375 354.613281 C 138.574219 354.613281 136.902344 353.933594 135.621094 352.679688 C 134.34375 351.402344 133.691406 349.730469 133.691406 347.929688 C 133.691406 347.066406 133.898438 346.179688 134.210938 345.394531 C 134.550781 344.585938 135.023438 343.855469 135.621094 343.175781 C 138.101562 340.695312 142.566406 340.695312 145.125 343.175781 C 145.726562 343.855469 146.195312 344.585938 146.511719 345.394531 Z M 157.113281 16.496094 C 155.570312 13.128906 157.035156 9.1875 160.375 7.644531 C 182.359375 -2.460938 208.785156 -1.9375 230.328125 9.082031 C 233.589844 10.753906 234.898438 14.773438 233.226562 18.089844 C 232.050781 20.386719 229.699219 21.71875 227.273438 21.71875 C 226.253906 21.71875 225.210938 21.484375 224.21875 20.988281 C 206.175781 11.746094 184.398438 11.328125 165.964844 19.761719 C 162.621094 21.328125 158.652344 19.839844 157.113281 16.496094 Z M 247.324219 33.757812 C 245.523438 33.757812 243.851562 33.078125 242.574219 31.824219 C 241.292969 30.546875 240.640625 28.875 240.640625 27.070312 C 240.640625 26.210938 240.851562 25.324219 241.164062 24.539062 C 241.503906 23.652344 241.972656 23 242.574219 22.320312 C 243.253906 21.71875 243.984375 21.25 244.792969 20.9375 C 247.246094 19.839844 250.199219 20.464844 252.078125 22.320312 C 252.679688 23 253.148438 23.730469 253.460938 24.539062 C 253.800781 25.324219 254.011719 26.210938 254.011719 27.070312 C 254.011719 28.875 253.332031 30.546875 252.078125 31.824219 C 251.398438 32.425781 250.667969 32.894531 249.859375 33.207031 C 249.074219 33.625 248.1875 33.757812 247.324219 33.757812 Z M 337.90625 258.46875 L 312.628906 267.191406 C 311.898438 267.453125 311.167969 267.558594 310.4375 267.558594 C 307.667969 267.558594 305.085938 265.832031 304.117188 263.039062 C 302.917969 259.566406 304.769531 255.753906 308.269531 254.554688 L 333.546875 245.832031 C 337.019531 244.632812 340.832031 246.484375 342.03125 249.984375 C 343.234375 253.457031 341.378906 257.269531 337.90625 258.46875 Z M 289.914062 274.320312 C 288.632812 275.597656 286.964844 276.277344 285.160156 276.277344 C 283.359375 276.277344 281.6875 275.597656 280.410156 274.320312 C 279.15625 273.066406 278.476562 271.394531 278.476562 269.59375 C 278.476562 267.84375 279.207031 266.121094 280.410156 264.839844 C 280.75 264.582031 281.089844 264.242188 281.480469 264.03125 C 281.820312 263.769531 282.210938 263.5625 282.628906 263.429688 C 283.019531 263.25 283.410156 263.09375 283.882812 263.039062 C 286.023438 262.570312 288.292969 263.300781 289.914062 264.839844 C 291.113281 266.121094 291.847656 267.84375 291.847656 269.59375 C 291.847656 271.394531 291.167969 273.066406 289.914062 274.320312 Z M 247.324219 261.421875 L 247.324219 294.453125 C 247.324219 297.769531 246.988281 301.003906 246.386719 304.164062 L 335.949219 273.300781 C 358.195312 265.625 370.964844 242.75 366.65625 220.296875 Z M 193.851562 113.96875 C 179.097656 113.96875 167.113281 101.984375 167.113281 87.234375 C 167.113281 72.480469 179.097656 60.496094 193.851562 60.496094 C 208.601562 60.496094 220.589844 72.480469 220.589844 87.234375 C 220.589844 101.984375 208.601562 113.96875 193.851562 113.96875 Z M 213.902344 180.816406 L 213.902344 194.183594 L 200.535156 194.183594 L 200.535156 207.554688 L 187.164062 207.554688 L 187.164062 194.183594 L 173.796875 194.183594 L 173.796875 180.816406 L 187.164062 180.816406 L 187.164062 167.445312 L 200.535156 167.445312 L 200.535156 180.816406 Z M 193.851562 314.503906 C 179.097656 314.503906 167.113281 302.519531 167.113281 287.765625 C 167.113281 273.015625 179.097656 261.03125 193.851562 261.03125 C 208.601562 261.03125 220.589844 273.015625 220.589844 287.765625 C 220.589844 302.519531 208.601562 314.503906 193.851562 314.503906 Z M 232.101562 68.535156 C 227.011719 52.269531 211.789062 40.441406 193.851562 40.441406 C 171.734375 40.441406 153.742188 58.433594 153.742188 80.546875 L 153.742188 254.660156 C 153.742188 254.683594 153.742188 254.683594 153.742188 254.683594 L 153.742188 294.453125 C 153.742188 316.566406 171.734375 334.558594 193.851562 334.558594 C 215.964844 334.558594 233.957031 316.566406 233.957031 294.453125 L 233.957031 80.546875 C 233.957031 76.5 233.332031 72.558594 232.207031 68.875 C 232.179688 68.746094 232.128906 68.667969 232.101562 68.535156 Z M 127.761719 275.78125 C 126.71875 278.367188 124.210938 279.933594 121.574219 279.933594 C 120.738281 279.933594 119.875 279.777344 119.042969 279.4375 L 106.691406 274.371094 C 103.269531 272.988281 101.625 269.097656 103.007812 265.675781 C 104.417969 262.230469 108.308594 260.585938 111.730469 261.996094 L 124.105469 267.0625 C 127.527344 268.445312 129.171875 272.363281 127.761719 275.78125 Z M 38.175781 239.042969 C 36.894531 240.296875 35.222656 240.976562 33.421875 240.976562 C 31.621094 240.976562 29.949219 240.296875 28.671875 239.042969 C 27.417969 237.765625 26.738281 236.09375 26.738281 234.292969 C 26.738281 232.542969 27.46875 230.820312 28.671875 229.539062 C 29.007812 229.277344 29.347656 228.9375 29.742188 228.730469 C 30.082031 228.46875 30.472656 228.257812 30.890625 228.15625 C 31.28125 227.945312 31.671875 227.816406 32.089844 227.738281 C 32.953125 227.527344 33.890625 227.527344 34.753906 227.738281 C 35.171875 227.816406 35.5625 227.945312 35.957031 228.15625 C 36.371094 228.257812 36.765625 228.46875 37.105469 228.730469 C 37.496094 228.9375 37.835938 229.277344 38.175781 229.539062 C 39.375 230.820312 40.105469 232.542969 40.105469 234.292969 C 40.105469 236.09375 39.429688 237.765625 38.175781 239.042969 Z M 140.375 294.453125 L 140.375 259.253906 L 92.460938 239.695312 C 91.910156 243.535156 90.398438 247.164062 87.996094 250.324219 C 84.183594 255.335938 78.59375 258.574219 72.25 259.382812 C 59.351562 260.949219 47.367188 251.96875 45.484375 239.226562 L 42.585938 219.328125 L 26.605469 212.828125 L 15.015625 241.238281 L 18.773438 252.933594 L 141.105469 302.886719 C 140.660156 300.117188 140.375 297.324219 140.375 294.453125 Z M 207.21875 287.765625 C 207.21875 295.128906 201.214844 301.136719 193.851562 301.136719 C 186.488281 301.136719 180.480469 295.128906 180.480469 287.765625 C 180.480469 280.402344 186.488281 274.398438 193.851562 274.398438 C 201.214844 274.398438 207.21875 280.402344 207.21875 287.765625 Z M 207.21875 87.234375 C 207.21875 94.597656 201.214844 100.601562 193.851562 100.601562 C 186.488281 100.601562 180.480469 94.597656 180.480469 87.234375 C 180.480469 79.871094 186.488281 73.863281 193.851562 73.863281 C 201.214844 73.863281 207.21875 79.871094 207.21875 87.234375 Z M 273.828125 93.1875 L 286.9375 95.796875 C 290.566406 96.527344 292.917969 100.027344 292.183594 103.65625 C 291.53125 106.84375 288.765625 109.035156 285.632812 109.035156 C 285.1875 109.035156 284.742188 109.007812 284.300781 108.90625 L 271.191406 106.269531 C 267.589844 105.5625 265.238281 102.039062 265.96875 98.410156 C 266.699219 94.804688 270.199219 92.429688 273.828125 93.1875 Z M 301.324219 104.753906 C 301.664062 103.945312 302.132812 103.210938 302.734375 102.535156 C 305.265625 100.054688 309.757812 100.054688 312.238281 102.535156 C 312.839844 103.210938 313.308594 103.945312 313.621094 104.753906 C 314.039062 105.535156 314.171875 106.425781 314.171875 107.285156 C 314.171875 109.085938 313.492188 110.757812 312.238281 112.039062 C 311.558594 112.640625 310.828125 113.109375 310.019531 113.421875 C 309.234375 113.761719 308.347656 113.96875 307.488281 113.96875 C 305.683594 113.96875 304.015625 113.292969 302.734375 112.039062 C 301.453125 110.757812 300.800781 109.085938 300.800781 107.285156 C 300.800781 106.425781 301.011719 105.535156 301.324219 104.753906 Z M 247.324219 80.546875 L 247.324219 116.765625 L 307.199219 128.722656 C 329.917969 133.265625 353.597656 130.8125 374.855469 121.804688 C 358.71875 105.355469 337.777344 93.941406 315.085938 89.398438 L 247.089844 75.796875 C 247.222656 77.363281 247.324219 78.957031 247.324219 80.546875 Z M 247.324219 80.546875 " clip-rule="nonzero"/></clipPath><clipPath id="2c791232a8"><path d="M 37.46875 146.871094 L 9.558594 160.109375 C 8.617188 160.554688 7.652344 160.761719 6.683594 160.761719 C 4.179688 160.761719 1.800781 159.351562 0.652344 156.949219 C -0.941406 153.609375 0.496094 149.613281 3.8125 148.046875 L 25.953125 137.550781 L 21.28125 133.789062 C 18.410156 131.4375 17.964844 127.234375 20.289062 124.363281 C 22.613281 121.492188 26.816406 121.074219 29.6875 123.371094 L 39.351562 131.203125 L 49.925781 126.191406 L 45.617188 122.71875 C 42.746094 120.394531 42.300781 116.191406 44.625 113.316406 C 46.949219 110.445312 51.179688 110 54.023438 112.324219 L 63.320312 119.84375 L 73.894531 114.832031 L 69.976562 111.671875 C 67.105469 109.324219 66.664062 105.117188 68.984375 102.246094 C 71.308594 99.402344 75.515625 98.957031 78.386719 101.253906 L 87.289062 108.488281 L 125.492188 90.367188 C 125.515625 90.367188 125.542969 90.367188 125.59375 90.367188 L 122.855469 84.359375 L 140.582031 76.292969 C 140.480469 77.703125 140.375 79.113281 140.375 80.546875 L 140.375 105.773438 L 133.925781 108.695312 L 131.105469 102.507812 L 98.804688 117.808594 L 101.597656 120.082031 C 104.472656 122.40625 104.914062 126.609375 102.589844 129.480469 C 101.285156 131.125 99.351562 131.960938 97.394531 131.960938 C 95.90625 131.960938 94.445312 131.464844 93.191406 130.472656 L 85.410156 124.152344 L 74.835938 129.167969 L 77.261719 131.152344 C 80.136719 133.449219 80.578125 137.679688 78.253906 140.527344 C 76.925781 142.171875 74.992188 143.007812 73.058594 143.007812 C 71.570312 143.007812 70.082031 142.535156 68.855469 141.519531 L 61.441406 135.511719 L 50.863281 140.527344 L 52.925781 142.195312 C 55.800781 144.519531 56.21875 148.726562 53.917969 151.597656 C 52.589844 153.214844 50.65625 154.078125 48.699219 154.078125 C 47.234375 154.078125 45.746094 153.582031 44.492188 152.589844 Z M 230.589844 358.503906 C 232.128906 361.84375 230.667969 365.8125 227.324219 367.355469 C 216.777344 372.210938 205.523438 374.664062 193.851562 374.664062 C 181.1875 374.664062 168.574219 371.636719 157.371094 365.917969 C 154.109375 364.222656 152.804688 360.199219 154.472656 356.910156 C 156.144531 353.644531 160.191406 352.339844 163.484375 354.011719 C 181.527344 363.253906 203.300781 363.671875 221.738281 355.238281 C 225.078125 353.671875 229.046875 355.160156 230.589844 358.503906 Z M 146.511719 345.394531 C 146.851562 346.179688 147.058594 347.066406 147.058594 347.929688 C 147.058594 349.730469 146.378906 351.402344 145.125 352.679688 C 143.847656 353.933594 142.175781 354.613281 140.375 354.613281 C 138.574219 354.613281 136.902344 353.933594 135.621094 352.679688 C 134.34375 351.402344 133.691406 349.730469 133.691406 347.929688 C 133.691406 347.066406 133.898438 346.179688 134.210938 345.394531 C 134.550781 344.585938 135.023438 343.855469 135.621094 343.175781 C 138.101562 340.695312 142.566406 340.695312 145.125 343.175781 C 145.726562 343.855469 146.195312 344.585938 146.511719 345.394531 Z M 157.113281 16.496094 C 155.570312 13.128906 157.035156 9.1875 160.375 7.644531 C 182.359375 -2.460938 208.785156 -1.9375 230.328125 9.082031 C 233.589844 10.753906 234.898438 14.773438 233.226562 18.089844 C 232.050781 20.386719 229.699219 21.71875 227.273438 21.71875 C 226.253906 21.71875 225.210938 21.484375 224.21875 20.988281 C 206.175781 11.746094 184.398438 11.328125 165.964844 19.761719 C 162.621094 21.328125 158.652344 19.839844 157.113281 16.496094 Z M 247.324219 33.757812 C 245.523438 33.757812 243.851562 33.078125 242.574219 31.824219 C 241.292969 30.546875 240.640625 28.875 240.640625 27.070312 C 240.640625 26.210938 240.851562 25.324219 241.164062 24.539062 C 241.503906 23.652344 241.972656 23 242.574219 22.320312 C 243.253906 21.71875 243.984375 21.25 244.792969 20.9375 C 247.246094 19.839844 250.199219 20.464844 252.078125 22.320312 C 252.679688 23 253.148438 23.730469 253.460938 24.539062 C 253.800781 25.324219 254.011719 26.210938 254.011719 27.070312 C 254.011719 28.875 253.332031 30.546875 252.078125 31.824219 C 251.398438 32.425781 250.667969 32.894531 249.859375 33.207031 C 249.074219 33.625 248.1875 33.757812 247.324219 33.757812 Z M 337.90625 258.46875 L 312.628906 267.191406 C 311.898438 267.453125 311.167969 267.558594 310.4375 267.558594 C 307.667969 267.558594 305.085938 265.832031 304.117188 263.039062 C 302.917969 259.566406 304.769531 255.753906 308.269531 254.554688 L 333.546875 245.832031 C 337.019531 244.632812 340.832031 246.484375 342.03125 249.984375 C 343.234375 253.457031 341.378906 257.269531 337.90625 258.46875 Z M 289.914062 274.320312 C 288.632812 275.597656 286.964844 276.277344 285.160156 276.277344 C 283.359375 276.277344 281.6875 275.597656 280.410156 274.320312 C 279.15625 273.066406 278.476562 271.394531 278.476562 269.59375 C 278.476562 267.84375 279.207031 266.121094 280.410156 264.839844 C 280.75 264.582031 281.089844 264.242188 281.480469 264.03125 C 281.820312 263.769531 282.210938 263.5625 282.628906 263.429688 C 283.019531 263.25 283.410156 263.09375 283.882812 263.039062 C 286.023438 262.570312 288.292969 263.300781 289.914062 264.839844 C 291.113281 266.121094 291.847656 267.84375 291.847656 269.59375 C 291.847656 271.394531 291.167969 273.066406 289.914062 274.320312 Z M 247.324219 261.421875 L 247.324219 294.453125 C 247.324219 297.769531 246.988281 301.003906 246.386719 304.164062 L 335.949219 273.300781 C 358.195312 265.625 370.964844 242.75 366.65625 220.296875 Z M 193.851562 113.96875 C 179.097656 113.96875 167.113281 101.984375 167.113281 87.234375 C 167.113281 72.480469 179.097656 60.496094 193.851562 60.496094 C 208.601562 60.496094 220.589844 72.480469 220.589844 87.234375 C 220.589844 101.984375 208.601562 113.96875 193.851562 113.96875 Z M 213.902344 180.816406 L 213.902344 194.183594 L 200.535156 194.183594 L 200.535156 207.554688 L 187.164062 207.554688 L 187.164062 194.183594 L 173.796875 194.183594 L 173.796875 180.816406 L 187.164062 180.816406 L 187.164062 167.445312 L 200.535156 167.445312 L 200.535156 180.816406 Z M 193.851562 314.503906 C 179.097656 314.503906 167.113281 302.519531 167.113281 287.765625 C 167.113281 273.015625 179.097656 261.03125 193.851562 261.03125 C 208.601562 261.03125 220.589844 273.015625 220.589844 287.765625 C 220.589844 302.519531 208.601562 314.503906 193.851562 314.503906 Z M 232.101562 68.535156 C 227.011719 52.269531 211.789062 40.441406 193.851562 40.441406 C 171.734375 40.441406 153.742188 58.433594 153.742188 80.546875 L 153.742188 254.660156 C 153.742188 254.683594 153.742188 254.683594 153.742188 254.683594 L 153.742188 294.453125 C 153.742188 316.566406 171.734375 334.558594 193.851562 334.558594 C 215.964844 334.558594 233.957031 316.566406 233.957031 294.453125 L 233.957031 80.546875 C 233.957031 76.5 233.332031 72.558594 232.207031 68.875 C 232.179688 68.746094 232.128906 68.667969 232.101562 68.535156 Z M 127.761719 275.78125 C 126.71875 278.367188 124.210938 279.933594 121.574219 279.933594 C 120.738281 279.933594 119.875 279.777344 119.042969 279.4375 L 106.691406 274.371094 C 103.269531 272.988281 101.625 269.097656 103.007812 265.675781 C 104.417969 262.230469 108.308594 260.585938 111.730469 261.996094 L 124.105469 267.0625 C 127.527344 268.445312 129.171875 272.363281 127.761719 275.78125 Z M 38.175781 239.042969 C 36.894531 240.296875 35.222656 240.976562 33.421875 240.976562 C 31.621094 240.976562 29.949219 240.296875 28.671875 239.042969 C 27.417969 237.765625 26.738281 236.09375 26.738281 234.292969 C 26.738281 232.542969 27.46875 230.820312 28.671875 229.539062 C 29.007812 229.277344 29.347656 228.9375 29.742188 228.730469 C 30.082031 228.46875 30.472656 228.257812 30.890625 228.15625 C 31.28125 227.945312 31.671875 227.816406 32.089844 227.738281 C 32.953125 227.527344 33.890625 227.527344 34.753906 227.738281 C 35.171875 227.816406 35.5625 227.945312 35.957031 228.15625 C 36.371094 228.257812 36.765625 228.46875 37.105469 228.730469 C 37.496094 228.9375 37.835938 229.277344 38.175781 229.539062 C 39.375 230.820312 40.105469 232.542969 40.105469 234.292969 C 40.105469 236.09375 39.429688 237.765625 38.175781 239.042969 Z M 140.375 294.453125 L 140.375 259.253906 L 92.460938 239.695312 C 91.910156 243.535156 90.398438 247.164062 87.996094 250.324219 C 84.183594 255.335938 78.59375 258.574219 72.25 259.382812 C 59.351562 260.949219 47.367188 251.96875 45.484375 239.226562 L 42.585938 219.328125 L 26.605469 212.828125 L 15.015625 241.238281 L 18.773438 252.933594 L 141.105469 302.886719 C 140.660156 300.117188 140.375 297.324219 140.375 294.453125 Z M 207.21875 287.765625 C 207.21875 295.128906 201.214844 301.136719 193.851562 301.136719 C 186.488281 301.136719 180.480469 295.128906 180.480469 287.765625 C 180.480469 280.402344 186.488281 274.398438 193.851562 274.398438 C 201.214844 274.398438 207.21875 280.402344 207.21875 287.765625 Z M 207.21875 87.234375 C 207.21875 94.597656 201.214844 100.601562 193.851562 100.601562 C 186.488281 100.601562 180.480469 94.597656 180.480469 87.234375 C 180.480469 79.871094 186.488281 73.863281 193.851562 73.863281 C 201.214844 73.863281 207.21875 79.871094 207.21875 87.234375 Z M 273.828125 93.1875 L 286.9375 95.796875 C 290.566406 96.527344 292.917969 100.027344 292.183594 103.65625 C 291.53125 106.84375 288.765625 109.035156 285.632812 109.035156 C 285.1875 109.035156 284.742188 109.007812 284.300781 108.90625 L 271.191406 106.269531 C 267.589844 105.5625 265.238281 102.039062 265.96875 98.410156 C 266.699219 94.804688 270.199219 92.429688 273.828125 93.1875 Z M 301.324219 104.753906 C 301.664062 103.945312 302.132812 103.210938 302.734375 102.535156 C 305.265625 100.054688 309.757812 100.054688 312.238281 102.535156 C 312.839844 103.210938 313.308594 103.945312 313.621094 104.753906 C 314.039062 105.535156 314.171875 106.425781 314.171875 107.285156 C 314.171875 109.085938 313.492188 110.757812 312.238281 112.039062 C 311.558594 112.640625 310.828125 113.109375 310.019531 113.421875 C 309.234375 113.761719 308.347656 113.96875 307.488281 113.96875 C 305.683594 113.96875 304.015625 113.292969 302.734375 112.039062 C 301.453125 110.757812 300.800781 109.085938 300.800781 107.285156 C 300.800781 106.425781 301.011719 105.535156 301.324219 104.753906 Z M 247.324219 80.546875 L 247.324219 116.765625 L 307.199219 128.722656 C 329.917969 133.265625 353.597656 130.8125 374.855469 121.804688 C 358.71875 105.355469 337.777344 93.941406 315.085938 89.398438 L 247.089844 75.796875 C 247.222656 77.363281 247.324219 78.957031 247.324219 80.546875 " clip-rule="nonzero"/></clipPath><clipPath id="f294263d4a"><path d="M -189.488281 186.089844 L 186.957031 562.5625 L 563.429688 186.089844 L 186.957031 -190.355469 Z M -189.488281 186.089844 " clip-rule="nonzero"/></clipPath><linearGradient x1="-0.288368" gradientTransform="matrix(243.609154, -243.609154, 243.609154, 243.609154, 73.037997, 307.205775)" y1="0" x2="1.249311" gradientUnits="userSpaceOnUse" y2="0" id="efff5a4409"><stop stop-opacity="1" stop-color="rgb(42.698669%, 80.39856%, 74.099731%)" offset="0"/><stop stop-opacity="1" stop-color="rgb(42.698669%, 80.39856%, 74.099731%)" offset="0.125"/><stop stop-opacity="1" stop-color="rgb(42.698669%, 80.39856%, 74.099731%)" offset="0.1875"/><stop stop-opacity="1" stop-color="rgb(42.698669%, 80.39856%, 74.320984%)" offset="0.191406"/><stop stop-opacity="1" stop-color="rgb(42.698669%, 80.39856%, 74.543762%)" offset="0.195312"/><stop stop-opacity="1" stop-color="rgb(42.698669%, 80.39856%, 74.920654%)" offset="0.199219"/><stop stop-opacity="1" stop-color="rgb(42.698669%, 80.39856%, 75.299072%)" offset="0.203125"/><stop stop-opacity="1" stop-color="rgb(42.698669%, 80.59845%, 75.498962%)" offset="0.207031"/><stop stop-opacity="1" stop-color="rgb(42.698669%, 80.79834%, 75.698853%)" offset="0.210938"/><stop stop-opacity="1" stop-color="rgb(42.698669%, 80.79834%, 75.698853%)" offset="0.21875"/><stop stop-opacity="1" stop-color="rgb(42.698669%, 80.799866%, 75.898743%)" offset="0.222656"/><stop stop-opacity="1" stop-color="rgb(42.698669%, 80.799866%, 76.098633%)" offset="0.226562"/><stop stop-opacity="1" stop-color="rgb(42.89856%, 80.799866%, 76.498413%)" offset="0.230469"/><stop stop-opacity="1" stop-color="rgb(43.099976%, 80.799866%, 76.899719%)" offset="0.234375"/><stop stop-opacity="1" stop-color="rgb(43.099976%, 80.799866%, 77.099609%)" offset="0.238281"/><stop stop-opacity="1" stop-color="rgb(43.099976%, 80.799866%, 77.2995%)" offset="0.242188"/><stop stop-opacity="1" stop-color="rgb(43.099976%, 80.799866%, 77.444458%)" offset="0.25"/><stop stop-opacity="1" stop-color="rgb(43.099976%, 80.799866%, 77.593994%)" offset="0.257813"/><stop stop-opacity="1" stop-color="rgb(43.299866%, 80.799866%, 77.96936%)" offset="0.261719"/><stop stop-opacity="1" stop-color="rgb(43.499756%, 80.799866%, 78.341675%)" offset="0.265625"/><stop stop-opacity="1" stop-color="rgb(43.508911%, 80.999756%, 78.770447%)" offset="0.269531"/><stop stop-opacity="1" stop-color="rgb(43.519592%, 81.199646%, 79.199219%)" offset="0.273438"/><stop stop-opacity="1" stop-color="rgb(43.708801%, 81.199646%, 79.397583%)" offset="0.277344"/><stop stop-opacity="1" stop-color="rgb(43.899536%, 81.199646%, 79.595947%)" offset="0.28125"/><stop stop-opacity="1" stop-color="rgb(44.087219%, 81.199646%, 79.985046%)" offset="0.285156"/><stop stop-opacity="1" stop-color="rgb(44.274902%, 81.199646%, 80.374146%)" offset="0.289063"/><stop stop-opacity="1" stop-color="rgb(44.287109%, 81.199646%, 80.561829%)" offset="0.296875"/><stop stop-opacity="1" stop-color="rgb(44.299316%, 81.399536%, 80.975342%)" offset="0.300781"/><stop stop-opacity="1" stop-color="rgb(44.299316%, 81.599426%, 81.199646%)" offset="0.304688"/><stop stop-opacity="1" stop-color="rgb(44.499207%, 81.599426%, 81.552124%)" offset="0.308594"/><stop stop-opacity="1" stop-color="rgb(44.699097%, 81.599426%, 81.906128%)" offset="0.3125"/><stop stop-opacity="1" stop-color="rgb(45.091248%, 81.791687%, 82.151794%)" offset="0.316406"/><stop stop-opacity="1" stop-color="rgb(45.484924%, 81.983948%, 82.398987%)" offset="0.320313"/><stop stop-opacity="1" stop-color="rgb(45.491028%, 81.991577%, 82.730103%)" offset="0.324219"/><stop stop-opacity="1" stop-color="rgb(45.498657%, 81.999207%, 83.061218%)" offset="0.328125"/><stop stop-opacity="1" stop-color="rgb(45.66803%, 81.999207%, 83.450317%)" offset="0.332031"/><stop stop-opacity="1" stop-color="rgb(45.838928%, 81.999207%, 83.839417%)" offset="0.335938"/><stop stop-opacity="1" stop-color="rgb(46.069336%, 81.840515%, 84.0271%)" offset="0.339844"/><stop stop-opacity="1" stop-color="rgb(46.299744%, 81.681824%, 84.216309%)" offset="0.34375"/><stop stop-opacity="1" stop-color="rgb(46.646118%, 81.492615%, 84.457397%)" offset="0.347656"/><stop stop-opacity="1" stop-color="rgb(46.994019%, 81.303406%, 84.698486%)" offset="0.351563"/><stop stop-opacity="1" stop-color="rgb(47.245789%, 81.063843%, 84.898376%)" offset="0.355469"/><stop stop-opacity="1" stop-color="rgb(47.499084%, 80.825806%, 85.099792%)" offset="0.359375"/><stop stop-opacity="1" stop-color="rgb(47.648621%, 80.636597%, 85.299683%)" offset="0.363281"/><stop stop-opacity="1" stop-color="rgb(47.799683%, 80.448914%, 85.499573%)" offset="0.367188"/><stop stop-opacity="1" stop-color="rgb(48.162842%, 80.223083%, 85.499573%)" offset="0.371094"/><stop stop-opacity="1" stop-color="rgb(48.527527%, 79.998779%, 85.499573%)" offset="0.375"/><stop stop-opacity="1" stop-color="rgb(48.9151%, 79.646301%, 85.699463%)" offset="0.378906"/><stop stop-opacity="1" stop-color="rgb(49.304199%, 79.293823%, 85.899353%)" offset="0.382813"/><stop stop-opacity="1" stop-color="rgb(49.551392%, 78.904724%, 86.099243%)" offset="0.386719"/><stop stop-opacity="1" stop-color="rgb(49.798584%, 78.515625%, 86.299133%)" offset="0.390625"/><stop stop-opacity="1" stop-color="rgb(50.172424%, 78.283691%, 86.473083%)" offset="0.394531"/><stop stop-opacity="1" stop-color="rgb(50.546265%, 78.051758%, 86.647034%)" offset="0.398438"/><stop stop-opacity="1" stop-color="rgb(50.941467%, 77.824402%, 86.842346%)" offset="0.402344"/><stop stop-opacity="1" stop-color="rgb(51.33667%, 77.598572%, 87.037659%)" offset="0.40625"/><stop stop-opacity="1" stop-color="rgb(51.567078%, 77.290344%, 87.068176%)" offset="0.410156"/><stop stop-opacity="1" stop-color="rgb(51.799011%, 76.983643%, 87.098694%)" offset="0.414063"/><stop stop-opacity="1" stop-color="rgb(52.294922%, 76.741028%, 87.245178%)" offset="0.417969"/><stop stop-opacity="1" stop-color="rgb(52.792358%, 76.499939%, 87.393188%)" offset="0.421875"/><stop stop-opacity="1" stop-color="rgb(53.045654%, 76.164246%, 87.446594%)" offset="0.425781"/><stop stop-opacity="1" stop-color="rgb(53.29895%, 75.828552%, 87.5%)" offset="0.429688"/><stop stop-opacity="1" stop-color="rgb(53.622437%, 75.439453%, 87.649536%)" offset="0.433594"/><stop stop-opacity="1" stop-color="rgb(53.947449%, 75.050354%, 87.799072%)" offset="0.4375"/><stop stop-opacity="1" stop-color="rgb(54.585266%, 74.810791%, 87.998962%)" offset="0.441406"/><stop stop-opacity="1" stop-color="rgb(55.224609%, 74.572754%, 88.198853%)" offset="0.445313"/><stop stop-opacity="1" stop-color="rgb(55.413818%, 74.183655%, 88.349915%)" offset="0.449219"/><stop stop-opacity="1" stop-color="rgb(55.603027%, 73.796082%, 88.502502%)" offset="0.453125"/><stop stop-opacity="1" stop-color="rgb(55.990601%, 73.606873%, 88.549805%)" offset="0.457031"/><stop stop-opacity="1" stop-color="rgb(56.3797%, 73.417664%, 88.598633%)" offset="0.460938"/><stop stop-opacity="1" stop-color="rgb(56.768799%, 73.028564%, 88.598633%)" offset="0.464844"/><stop stop-opacity="1" stop-color="rgb(57.157898%, 72.640991%, 88.598633%)" offset="0.46875"/><stop stop-opacity="1" stop-color="rgb(57.496643%, 72.302246%, 88.798523%)" offset="0.472656"/><stop stop-opacity="1" stop-color="rgb(57.835388%, 71.963501%, 88.999939%)" offset="0.476563"/><stop stop-opacity="1" stop-color="rgb(58.117676%, 71.681213%, 88.999939%)" offset="0.480469"/><stop stop-opacity="1" stop-color="rgb(58.399963%, 71.398926%, 88.999939%)" offset="0.484375"/><stop stop-opacity="1" stop-color="rgb(58.744812%, 71.052551%, 88.999939%)" offset="0.488281"/><stop stop-opacity="1" stop-color="rgb(59.089661%, 70.707703%, 88.999939%)" offset="0.492188"/><stop stop-opacity="1" stop-color="rgb(59.67865%, 70.318604%, 88.664246%)" offset="0.496094"/><stop stop-opacity="1" stop-color="rgb(60.267639%, 69.93103%, 88.330078%)" offset="0.5"/><stop stop-opacity="1" stop-color="rgb(60.656738%, 69.541931%, 88.140869%)" offset="0.503906"/><stop stop-opacity="1" stop-color="rgb(61.045837%, 69.152832%, 87.953186%)" offset="0.507812"/><stop stop-opacity="1" stop-color="rgb(61.433411%, 68.875122%, 87.791443%)" offset="0.511719"/><stop stop-opacity="1" stop-color="rgb(61.82251%, 68.598938%, 87.631226%)" offset="0.515625"/><stop stop-opacity="1" stop-color="rgb(62.211609%, 68.264771%, 87.565613%)" offset="0.519531"/><stop stop-opacity="1" stop-color="rgb(62.600708%, 67.930603%, 87.5%)" offset="0.523438"/><stop stop-opacity="1" stop-color="rgb(62.989807%, 67.575073%, 87.298584%)" offset="0.527344"/><stop stop-opacity="1" stop-color="rgb(63.378906%, 67.221069%, 87.098694%)" offset="0.53125"/><stop stop-opacity="1" stop-color="rgb(63.766479%, 66.83197%, 86.77063%)" offset="0.535156"/><stop stop-opacity="1" stop-color="rgb(64.155579%, 66.442871%, 86.442566%)" offset="0.539062"/><stop stop-opacity="1" stop-color="rgb(64.544678%, 66.253662%, 86.37085%)" offset="0.542969"/><stop stop-opacity="1" stop-color="rgb(64.933777%, 66.065979%, 86.299133%)" offset="0.546875"/><stop stop-opacity="1" stop-color="rgb(65.216064%, 65.67688%, 85.992432%)" offset="0.550781"/><stop stop-opacity="1" stop-color="rgb(65.499878%, 65.287781%, 85.687256%)" offset="0.554688"/><stop stop-opacity="1" stop-color="rgb(65.994263%, 64.898682%, 85.498047%)" offset="0.558594"/><stop stop-opacity="1" stop-color="rgb(66.488647%, 64.509583%, 85.310364%)" offset="0.5625"/><stop stop-opacity="1" stop-color="rgb(66.926575%, 64.27002%, 85.205078%)" offset="0.566406"/><stop stop-opacity="1" stop-color="rgb(67.366028%, 64.031982%, 85.099792%)" offset="0.570312"/><stop stop-opacity="1" stop-color="rgb(67.704773%, 63.764954%, 84.898376%)" offset="0.574219"/><stop stop-opacity="1" stop-color="rgb(68.043518%, 63.499451%, 84.698486%)" offset="0.578125"/><stop stop-opacity="1" stop-color="rgb(68.231201%, 63.188171%, 84.587097%)" offset="0.582031"/><stop stop-opacity="1" stop-color="rgb(68.42041%, 62.876892%, 84.477234%)" offset="0.585938"/><stop stop-opacity="1" stop-color="rgb(68.708801%, 62.637329%, 84.288025%)" offset="0.589844"/><stop stop-opacity="1" stop-color="rgb(68.998718%, 62.399292%, 84.100342%)" offset="0.59375"/><stop stop-opacity="1" stop-color="rgb(69.287109%, 62.110901%, 83.911133%)" offset="0.597656"/><stop stop-opacity="1" stop-color="rgb(69.5755%, 61.82251%, 83.721924%)" offset="0.601562"/><stop stop-opacity="1" stop-color="rgb(70.013428%, 61.383057%, 83.482361%)" offset="0.605469"/><stop stop-opacity="1" stop-color="rgb(70.452881%, 60.945129%, 83.244324%)" offset="0.609375"/><stop stop-opacity="1" stop-color="rgb(70.726013%, 60.671997%, 83.055115%)" offset="0.613281"/><stop stop-opacity="1" stop-color="rgb(70.999146%, 60.398865%, 82.867432%)" offset="0.617188"/><stop stop-opacity="1" stop-color="rgb(71.302795%, 60.093689%, 82.783508%)" offset="0.621094"/><stop stop-opacity="1" stop-color="rgb(71.607971%, 59.790039%, 82.699585%)" offset="0.625"/><stop stop-opacity="1" stop-color="rgb(71.79718%, 59.40094%, 82.548523%)" offset="0.628906"/><stop stop-opacity="1" stop-color="rgb(71.986389%, 59.011841%, 82.398987%)" offset="0.632812"/><stop stop-opacity="1" stop-color="rgb(72.154236%, 58.822632%, 82.199097%)" offset="0.636719"/><stop stop-opacity="1" stop-color="rgb(72.322083%, 58.634949%, 81.999207%)" offset="0.640625"/><stop stop-opacity="1" stop-color="rgb(72.410583%, 58.31604%, 81.904602%)" offset="0.644531"/><stop stop-opacity="1" stop-color="rgb(72.499084%, 57.998657%, 81.809998%)" offset="0.648438"/><stop stop-opacity="1" stop-color="rgb(72.808838%, 57.71637%, 81.704712%)" offset="0.652344"/><stop stop-opacity="1" stop-color="rgb(73.118591%, 57.434082%, 81.599426%)" offset="0.65625"/><stop stop-opacity="1" stop-color="rgb(73.3078%, 57.067871%, 81.399536%)" offset="0.660156"/><stop stop-opacity="1" stop-color="rgb(73.497009%, 56.70166%, 81.199646%)" offset="0.664062"/><stop stop-opacity="1" stop-color="rgb(73.684692%, 56.512451%, 80.999756%)" offset="0.667969"/><stop stop-opacity="1" stop-color="rgb(73.873901%, 56.324768%, 80.799866%)" offset="0.671875"/><stop stop-opacity="1" stop-color="rgb(74.06311%, 55.935669%, 80.59845%)" offset="0.675781"/><stop stop-opacity="1" stop-color="rgb(74.252319%, 55.54657%, 80.39856%)" offset="0.679688"/><stop stop-opacity="1" stop-color="rgb(74.440002%, 55.357361%, 80.39856%)" offset="0.6875"/><stop stop-opacity="1" stop-color="rgb(74.867249%, 54.930115%, 80.198669%)" offset="0.691406"/><stop stop-opacity="1" stop-color="rgb(75.106812%, 54.692078%, 79.998779%)" offset="0.695312"/><stop stop-opacity="1" stop-color="rgb(75.294495%, 54.394531%, 79.905701%)" offset="0.699219"/><stop stop-opacity="1" stop-color="rgb(75.483704%, 54.098511%, 79.814148%)" offset="0.703125"/><stop stop-opacity="1" stop-color="rgb(75.590515%, 53.817749%, 79.705811%)" offset="0.707031"/><stop stop-opacity="1" stop-color="rgb(75.698853%, 53.536987%, 79.598999%)" offset="0.710938"/><stop stop-opacity="1" stop-color="rgb(75.898743%, 53.347778%, 79.399109%)" offset="0.714844"/><stop stop-opacity="1" stop-color="rgb(76.098633%, 53.158569%, 79.199219%)" offset="0.71875"/><stop stop-opacity="1" stop-color="rgb(76.156616%, 52.96936%, 79.139709%)" offset="0.726562"/><stop stop-opacity="1" stop-color="rgb(76.557922%, 52.490234%, 78.939819%)" offset="0.730469"/><stop stop-opacity="1" stop-color="rgb(76.899719%, 52.198792%, 78.799438%)" offset="0.734375"/><stop stop-opacity="1" stop-color="rgb(76.985168%, 51.911926%, 78.599548%)" offset="0.738281"/><stop stop-opacity="1" stop-color="rgb(77.072144%, 51.626587%, 78.399658%)" offset="0.742188"/><stop stop-opacity="1" stop-color="rgb(77.185059%, 51.437378%, 78.323364%)" offset="0.75"/><stop stop-opacity="1" stop-color="rgb(77.449036%, 51.060486%, 78.123474%)" offset="0.757812"/><stop stop-opacity="1" stop-color="rgb(77.650452%, 50.535583%, 77.798462%)" offset="0.761719"/><stop stop-opacity="1" stop-color="rgb(77.703857%, 50.19989%, 77.598572%)" offset="0.765625"/><stop stop-opacity="1" stop-color="rgb(78.051758%, 49.943542%, 77.598572%)" offset="0.769531"/><stop stop-opacity="1" stop-color="rgb(78.399658%, 49.688721%, 77.598572%)" offset="0.773438"/><stop stop-opacity="1" stop-color="rgb(78.538513%, 49.543762%, 77.493286%)" offset="0.78125"/><stop stop-opacity="1" stop-color="rgb(78.807068%, 49.130249%, 77.275085%)" offset="0.785156"/><stop stop-opacity="1" stop-color="rgb(78.936768%, 48.861694%, 77.160645%)" offset="0.789062"/><stop stop-opacity="1" stop-color="rgb(79.267883%, 48.530579%, 77.029419%)" offset="0.792969"/><stop stop-opacity="1" stop-color="rgb(79.598999%, 48.199463%, 76.899719%)" offset="0.796875"/><stop stop-opacity="1" stop-color="rgb(79.798889%, 47.999573%, 76.852417%)" offset="0.800781"/><stop stop-opacity="1" stop-color="rgb(79.998779%, 47.799683%, 76.806641%)" offset="0.804688"/><stop stop-opacity="1" stop-color="rgb(80.198669%, 47.648621%, 76.652527%)" offset="0.808594"/><stop stop-opacity="1" stop-color="rgb(80.39856%, 47.499084%, 76.499939%)" offset="0.8125"/><stop stop-opacity="1" stop-color="rgb(80.39856%, 47.370911%, 76.499939%)" offset="0.820312"/><stop stop-opacity="1" stop-color="rgb(80.661011%, 46.97113%, 76.298523%)" offset="0.824219"/><stop stop-opacity="1" stop-color="rgb(80.924988%, 46.699524%, 76.098633%)" offset="0.828125"/><stop stop-opacity="1" stop-color="rgb(81.112671%, 46.499634%, 76.046753%)" offset="0.832031"/><stop stop-opacity="1" stop-color="rgb(81.30188%, 46.299744%, 75.996399%)" offset="0.835938"/><stop stop-opacity="1" stop-color="rgb(81.44989%, 46.299744%, 75.846863%)" offset="0.84375"/><stop stop-opacity="1" stop-color="rgb(81.599426%, 46.299744%, 75.698853%)" offset="0.875"/><stop stop-opacity="1" stop-color="rgb(81.599426%, 46.299744%, 75.698853%)" offset="1"/></linearGradient></defs><g clip-path="url(#e8e9c7ae8a)"><g clip-path="url(#a0a3f0d41e)"><g clip-path="url(#2c791232a8)"><g clip-path="url(#f294263d4a)"><path fill="url(#efff5a4409)" d="M -187.164062 187.5 L 187.425781 562.09375 L 562.019531 187.5 L 187.425781 -187.09375 Z M -187.164062 187.5 " fill-rule="nonzero"/></g></g></g></g></svg>