<svg xmlns="http://www.w3.org/2000/svg" xmlns:xlink="http://www.w3.org/1999/xlink" width="500" zoomAndPan="magnify" viewBox="0 0 375 374.999991" height="500" preserveAspectRatio="xMidYMid meet" version="1.0"><defs><clipPath id="9f9da9956f"><path d="M 87.277344 87.277344 L 287.527344 87.277344 L 287.527344 287.527344 L 87.277344 287.527344 Z M 87.277344 87.277344 " clip-rule="nonzero"/></clipPath></defs><g clip-path="url(#9f9da9956f)"><path fill="#a993ec" d="M 264.164062 251.738281 L 264.164062 232.730469 L 280.851562 223.1875 L 280.851562 242.195312 Z M 240.800781 223.1875 L 257.488281 232.730469 L 257.488281 251.738281 L 240.800781 242.195312 Z M 212.417969 241.246094 L 190.738281 228.847656 L 190.738281 216.042969 L 212.417969 203.644531 C 213.460938 203.058594 214.101562 201.949219 214.101562 200.75 L 214.101562 174.050781 C 214.101562 172.851562 213.460938 171.742188 212.417969 171.15625 L 190.738281 158.757812 L 190.738281 145.957031 L 210.867188 134.445312 L 234.125 146.074219 L 234.125 157.363281 C 234.125 158.5625 234.765625 159.671875 235.808594 160.257812 L 257.488281 172.65625 L 257.488281 202.144531 L 235.808594 214.542969 C 234.765625 215.132812 234.125 216.238281 234.125 217.4375 L 234.125 242.289062 L 214.101562 254.804688 L 214.101562 244.140625 C 214.101562 242.941406 213.460938 241.832031 212.417969 241.246094 Z M 190.738281 278.441406 L 190.738281 259.429688 L 207.425781 249.886719 L 207.425781 268.894531 Z M 167.375 249.886719 L 184.0625 259.429688 L 184.0625 278.441406 L 167.375 268.894531 Z M 140.675781 242.289062 L 140.675781 217.4375 C 140.675781 216.238281 140.039062 215.132812 138.996094 214.542969 L 117.3125 202.144531 L 117.3125 172.65625 L 138.996094 160.257812 C 140.039062 159.671875 140.675781 158.5625 140.675781 157.363281 L 140.675781 146.074219 L 163.933594 134.445312 L 184.0625 145.957031 L 184.0625 158.757812 L 162.382812 171.15625 C 161.339844 171.742188 160.703125 172.851562 160.703125 174.050781 L 160.703125 200.75 C 160.703125 201.949219 161.339844 203.058594 162.382812 203.644531 L 184.0625 216.042969 L 184.0625 228.847656 L 162.382812 241.246094 C 161.339844 241.832031 160.703125 242.941406 160.703125 244.140625 L 160.703125 254.804688 Z M 117.3125 251.738281 L 117.3125 232.730469 L 134 223.1875 L 134 242.195312 Z M 93.953125 223.1875 L 110.640625 232.730469 L 110.640625 251.738281 L 93.953125 242.195312 Z M 113.976562 226.941406 L 97.339844 217.4375 L 113.976562 207.933594 L 130.613281 217.4375 Z M 93.953125 136.414062 L 110.640625 145.957031 L 110.640625 164.964844 L 93.953125 155.421875 Z M 113.976562 121.160156 L 130.613281 130.664062 L 113.976562 140.167969 L 97.339844 130.664062 Z M 117.3125 145.957031 L 134 136.414062 L 134 155.421875 L 117.3125 164.964844 Z M 187.402344 94.460938 L 204.035156 103.964844 L 187.402344 113.46875 L 170.765625 103.964844 Z M 190.738281 119.257812 L 207.425781 109.714844 L 207.425781 128.722656 L 190.738281 138.265625 Z M 167.375 109.714844 L 184.0625 119.257812 L 184.0625 138.265625 L 167.375 128.722656 Z M 187.402344 183.554688 L 170.765625 174.050781 L 187.402344 164.546875 L 204.035156 174.050781 Z M 190.738281 189.34375 L 207.425781 179.800781 L 207.425781 198.808594 L 190.738281 208.351562 Z M 167.375 179.800781 L 184.0625 189.34375 L 184.0625 208.351562 L 167.375 198.808594 Z M 187.402344 253.644531 L 170.765625 244.140625 L 187.402344 234.636719 L 204.035156 244.140625 Z M 260.828125 121.160156 L 277.460938 130.664062 L 260.828125 140.167969 L 244.191406 130.664062 Z M 240.800781 136.414062 L 257.488281 145.957031 L 257.488281 164.964844 L 240.800781 155.421875 Z M 260.828125 226.941406 L 244.191406 217.4375 L 260.828125 207.933594 L 277.460938 217.4375 Z M 264.164062 164.964844 L 264.164062 145.957031 L 280.851562 136.414062 L 280.851562 155.421875 Z M 285.84375 160.257812 C 286.886719 159.671875 287.527344 158.5625 287.527344 157.363281 L 287.527344 130.664062 C 287.527344 129.464844 286.886719 128.355469 285.84375 127.769531 L 262.480469 114.417969 C 261.464844 113.832031 260.1875 113.832031 259.171875 114.417969 L 235.808594 127.769531 C 234.765625 128.355469 234.125 129.464844 234.125 130.664062 L 234.125 138.617188 L 214.101562 128.605469 L 214.101562 103.964844 C 214.101562 102.765625 213.460938 101.65625 212.417969 101.070312 L 189.058594 87.71875 C 188.039062 87.132812 186.761719 87.132812 185.746094 87.71875 L 162.382812 101.070312 C 161.339844 101.65625 160.703125 102.765625 160.703125 103.964844 L 160.703125 128.605469 L 140.675781 138.617188 L 140.675781 130.664062 C 140.675781 129.464844 140.039062 128.355469 138.996094 127.769531 L 115.632812 114.417969 C 114.617188 113.832031 113.351562 113.832031 112.320312 114.417969 L 88.957031 127.769531 C 87.914062 128.355469 87.277344 129.464844 87.277344 130.664062 L 87.277344 157.363281 C 87.277344 158.5625 87.914062 159.671875 88.957031 160.257812 L 110.640625 172.65625 L 110.640625 202.144531 L 88.957031 214.542969 C 87.914062 215.132812 87.277344 216.238281 87.277344 217.4375 L 87.277344 244.140625 C 87.277344 245.339844 87.914062 246.445312 88.957031 247.03125 L 112.320312 260.382812 C 112.828125 260.683594 113.402344 260.828125 113.976562 260.828125 C 114.550781 260.828125 115.125 260.683594 115.632812 260.382812 L 137.261719 248.023438 L 160.703125 262.675781 L 160.703125 270.839844 C 160.703125 272.039062 161.339844 273.148438 162.382812 273.734375 L 185.746094 287.082031 C 186.253906 287.382812 186.828125 287.527344 187.402344 287.527344 C 187.976562 287.527344 188.546875 287.382812 189.058594 287.082031 L 212.417969 273.734375 C 213.460938 273.148438 214.101562 272.039062 214.101562 270.839844 L 214.101562 262.675781 L 237.542969 248.023438 L 259.171875 260.382812 C 259.679688 260.683594 260.253906 260.828125 260.828125 260.828125 C 261.398438 260.828125 261.972656 260.683594 262.480469 260.382812 L 285.84375 247.03125 C 286.886719 246.445312 287.527344 245.339844 287.527344 244.140625 L 287.527344 217.4375 C 287.527344 216.238281 286.886719 215.132812 285.84375 214.542969 L 264.164062 202.144531 L 264.164062 172.65625 L 285.84375 160.257812 " fill-opacity="1" fill-rule="nonzero"/></g></svg>