<svg xmlns="http://www.w3.org/2000/svg" xmlns:xlink="http://www.w3.org/1999/xlink" width="500" zoomAndPan="magnify" viewBox="0 0 375 374.999991" height="500" preserveAspectRatio="xMidYMid meet" version="1.0"><defs><clipPath id="bcbffc08a7"><path d="M 82.890625 61.878906 L 292 61.878906 L 292 313.128906 L 82.890625 313.128906 Z M 82.890625 61.878906 " clip-rule="nonzero"/></clipPath></defs><g clip-path="url(#bcbffc08a7)"><path fill="#a993ec" d="M 100.578125 135.1875 C 100.234375 134.242188 99.964844 133.28125 99.765625 132.292969 C 99.570312 131.308594 99.449219 130.316406 99.402344 129.3125 C 99.355469 128.308594 99.386719 127.308594 99.492188 126.308594 C 99.597656 125.3125 99.777344 124.324219 100.03125 123.355469 C 100.285156 122.382812 100.613281 121.4375 101.011719 120.515625 C 101.410156 119.59375 101.875 118.707031 102.40625 117.855469 C 102.9375 117.003906 103.53125 116.195312 104.1875 115.433594 C 104.84375 114.671875 105.550781 113.964844 106.3125 113.308594 C 107.074219 112.726562 107.871094 112.195312 108.710938 111.726562 C 109.546875 111.257812 110.414062 110.851562 111.308594 110.507812 C 112.207031 110.164062 113.125 109.890625 114.058594 109.679688 C 114.996094 109.46875 115.945312 109.328125 116.902344 109.257812 C 117.859375 109.183594 118.816406 109.183594 119.773438 109.25 C 120.730469 109.320312 121.679688 109.457031 122.617188 109.660156 C 123.554688 109.867188 124.472656 110.140625 125.371094 110.480469 C 126.269531 110.816406 127.136719 111.222656 127.976562 111.6875 C 117.59375 118.066406 108.460938 125.898438 100.578125 135.1875 Z M 187.433594 94.839844 C 188.785156 94.839844 190.125 94.898438 191.464844 94.941406 L 191.464844 78.300781 L 182.683594 78.300781 L 182.683594 94.964844 C 184.261719 94.898438 185.839844 94.839844 187.433594 94.839844 Z M 273.222656 133.933594 C 273.511719 133.039062 273.730469 132.125 273.882812 131.195312 C 274.035156 130.269531 274.117188 129.332031 274.128906 128.390625 C 274.144531 127.453125 274.085938 126.515625 273.960938 125.582031 C 273.835938 124.648438 273.644531 123.730469 273.382812 122.828125 C 273.121094 121.925781 272.792969 121.042969 272.402344 120.1875 C 272.011719 119.332031 271.558594 118.511719 271.046875 117.722656 C 270.53125 116.933594 269.964844 116.1875 269.339844 115.484375 C 268.714844 114.78125 268.042969 114.125 267.324219 113.519531 C 266.601562 112.914062 265.839844 112.367188 265.039062 111.875 C 264.238281 111.382812 263.402344 110.953125 262.539062 110.582031 C 261.671875 110.214844 260.785156 109.910156 259.875 109.675781 C 258.960938 109.4375 258.039062 109.269531 257.105469 109.167969 C 256.167969 109.066406 255.230469 109.035156 254.289062 109.074219 C 253.351562 109.113281 252.417969 109.222656 251.492188 109.398438 C 250.570312 109.574219 249.664062 109.816406 248.773438 110.128906 C 247.886719 110.4375 247.027344 110.8125 246.195312 111.25 C 256.378906 117.410156 265.390625 124.96875 273.222656 133.933594 Z M 250.769531 208.585938 C 250.773438 208.894531 250.808594 209.203125 250.875 209.503906 C 250.9375 209.808594 251.03125 210.101562 251.152344 210.386719 C 251.273438 210.667969 251.417969 210.941406 251.59375 211.195312 C 251.765625 211.453125 251.960938 211.691406 252.179688 211.910156 C 252.398438 212.128906 252.636719 212.324219 252.890625 212.496094 C 253.148438 212.667969 253.417969 212.816406 253.703125 212.9375 C 253.988281 213.058594 254.28125 213.152344 254.585938 213.214844 C 254.886719 213.277344 255.191406 213.3125 255.503906 213.320312 L 267.269531 213.320312 C 267.121094 215.765625 266.863281 218.195312 266.492188 220.617188 C 266.125 223.039062 265.644531 225.4375 265.054688 227.816406 C 264.464844 230.191406 263.765625 232.535156 262.960938 234.851562 C 262.15625 237.164062 261.246094 239.433594 260.234375 241.664062 C 259.21875 243.894531 258.105469 246.070312 256.890625 248.199219 C 255.679688 250.328125 254.371094 252.394531 252.964844 254.402344 C 251.5625 256.410156 250.070312 258.347656 248.488281 260.21875 C 246.90625 262.089844 245.246094 263.882812 243.5 265.601562 C 241.753906 267.316406 239.933594 268.953125 238.035156 270.503906 C 236.140625 272.054688 234.175781 273.515625 232.148438 274.882812 C 230.117188 276.253906 228.027344 277.53125 225.882812 278.707031 C 223.734375 279.886719 221.539062 280.964844 219.292969 281.941406 C 217.046875 282.921875 214.761719 283.792969 212.433594 284.5625 C 210.109375 285.328125 207.753906 285.988281 205.367188 286.539062 C 202.980469 287.089844 200.574219 287.53125 198.144531 287.863281 C 195.71875 288.195312 193.28125 288.414062 190.835938 288.519531 C 190.867188 288.332031 190.886719 288.144531 190.894531 287.957031 L 190.894531 273.355469 C 190.894531 273.042969 190.863281 272.734375 190.804688 272.429688 C 190.742188 272.125 190.652344 271.832031 190.535156 271.542969 C 190.414062 271.257812 190.269531 270.984375 190.097656 270.726562 C 189.925781 270.46875 189.726562 270.226562 189.507812 270.007812 C 189.289062 269.789062 189.050781 269.59375 188.789062 269.417969 C 188.53125 269.246094 188.257812 269.101562 187.972656 268.980469 C 187.683594 268.863281 187.390625 268.773438 187.085938 268.714844 C 186.78125 268.652344 186.472656 268.621094 186.160156 268.621094 C 185.851562 268.621094 185.542969 268.652344 185.238281 268.714844 C 184.933594 268.773438 184.636719 268.863281 184.351562 268.980469 C 184.0625 269.101562 183.789062 269.246094 183.53125 269.417969 C 183.273438 269.59375 183.035156 269.789062 182.816406 270.007812 C 182.59375 270.226562 182.398438 270.46875 182.226562 270.726562 C 182.054688 270.984375 181.90625 271.257812 181.789062 271.542969 C 181.667969 271.832031 181.582031 272.125 181.519531 272.429688 C 181.457031 272.734375 181.429688 273.042969 181.429688 273.355469 L 181.429688 287.953125 C 181.429688 288.085938 181.460938 288.21875 181.46875 288.355469 C 179.136719 288.179688 176.816406 287.898438 174.507812 287.519531 C 172.199219 287.136719 169.910156 286.65625 167.644531 286.074219 C 165.375 285.492188 163.140625 284.816406 160.933594 284.039062 C 158.722656 283.257812 156.554688 282.386719 154.425781 281.417969 C 152.292969 280.453125 150.210938 279.394531 148.171875 278.242188 C 146.132812 277.09375 144.148438 275.855469 142.21875 274.53125 C 140.289062 273.207031 138.421875 271.800781 136.617188 270.3125 C 134.808594 268.828125 133.074219 267.261719 131.402344 265.621094 C 129.734375 263.984375 128.140625 262.273438 126.621094 260.492188 C 125.101562 258.714844 123.664062 256.871094 122.304688 254.964844 C 120.949219 253.058594 119.675781 251.097656 118.488281 249.082031 C 117.304688 247.0625 116.207031 244.996094 115.203125 242.882812 C 114.199219 240.769531 113.289062 238.617188 112.472656 236.425781 C 111.65625 234.230469 110.9375 232.007812 110.316406 229.75 C 109.695312 227.496094 109.175781 225.214844 108.753906 222.914062 C 108.332031 220.613281 108.011719 218.296875 107.792969 215.96875 C 108.0625 216.019531 108.335938 216.046875 108.609375 216.050781 L 119.554688 216.050781 C 120.859375 216.035156 121.976562 215.570312 122.90625 214.65625 C 123.234375 214.324219 123.511719 213.953125 123.730469 213.542969 C 123.953125 213.128906 124.109375 212.691406 124.199219 212.234375 C 124.289062 211.773438 124.3125 211.3125 124.265625 210.847656 C 124.21875 210.378906 124.109375 209.929688 123.929688 209.5 C 123.75 209.066406 123.511719 208.667969 123.214844 208.308594 C 122.917969 207.945312 122.574219 207.636719 122.1875 207.375 C 121.796875 207.113281 121.378906 206.917969 120.929688 206.78125 C 120.480469 206.644531 120.023438 206.578125 119.554688 206.578125 L 108.609375 206.578125 C 108.234375 206.582031 107.863281 206.636719 107.496094 206.734375 C 107.558594 204.300781 107.730469 201.875 108.011719 199.457031 C 108.292969 197.039062 108.683594 194.640625 109.183594 192.257812 C 109.683594 189.875 110.289062 187.519531 111.003906 185.195312 C 111.71875 182.867188 112.539062 180.578125 113.464844 178.328125 C 114.386719 176.074219 115.410156 173.871094 116.535156 171.710938 C 117.660156 169.550781 118.882812 167.449219 120.199219 165.402344 C 121.515625 163.355469 122.921875 161.371094 124.421875 159.453125 C 125.917969 157.535156 127.5 155.6875 129.164062 153.914062 C 130.832031 152.136719 132.574219 150.441406 134.394531 148.828125 C 136.214844 147.210938 138.105469 145.683594 140.066406 144.238281 C 142.027344 142.796875 144.046875 141.445312 146.132812 140.183594 C 148.214844 138.925781 150.351562 137.765625 152.539062 136.699219 C 154.730469 135.636719 156.960938 134.671875 159.238281 133.8125 C 161.515625 132.953125 163.828125 132.195312 166.171875 131.546875 C 168.519531 130.898438 170.890625 130.355469 173.285156 129.921875 C 175.679688 129.488281 178.089844 129.164062 180.515625 128.949219 L 180.515625 143.8125 C 180.515625 144.125 180.546875 144.429688 180.605469 144.738281 C 180.664062 145.042969 180.753906 145.339844 180.875 145.625 C 180.992188 145.914062 181.136719 146.1875 181.3125 146.445312 C 181.484375 146.703125 181.679688 146.941406 181.898438 147.164062 C 182.121094 147.382812 182.359375 147.578125 182.617188 147.753906 C 182.875 147.925781 183.148438 148.070312 183.4375 148.191406 C 183.722656 148.308594 184.019531 148.398438 184.324219 148.460938 C 184.628906 148.519531 184.9375 148.550781 185.25 148.550781 C 185.558594 148.550781 185.867188 148.519531 186.171875 148.460938 C 186.476562 148.398438 186.773438 148.308594 187.0625 148.191406 C 187.347656 148.070312 187.621094 147.925781 187.878906 147.753906 C 188.136719 147.578125 188.378906 147.382812 188.597656 147.164062 C 188.816406 146.941406 189.011719 146.703125 189.1875 146.445312 C 189.359375 146.1875 189.503906 145.914062 189.621094 145.625 C 189.742188 145.339844 189.832031 145.042969 189.890625 144.738281 C 189.953125 144.429688 189.980469 144.125 189.980469 143.8125 L 189.980469 128.695312 C 192.445312 128.777344 194.902344 128.972656 197.347656 129.28125 C 199.792969 129.589844 202.21875 130.007812 204.628906 130.542969 C 207.035156 131.074219 209.414062 131.714844 211.761719 132.46875 C 214.109375 133.222656 216.417969 134.078125 218.683594 135.042969 C 220.953125 136.011719 223.171875 137.078125 225.34375 138.246094 C 227.511719 139.417969 229.625 140.6875 231.679688 142.050781 C 233.730469 143.417969 235.714844 144.875 237.636719 146.421875 C 239.554688 147.972656 241.394531 149.605469 243.164062 151.324219 C 244.929688 153.042969 246.617188 154.839844 248.21875 156.714844 C 249.820312 158.585938 251.332031 160.53125 252.753906 162.546875 C 254.175781 164.558594 255.5 166.636719 256.730469 168.773438 C 257.960938 170.910156 259.089844 173.097656 260.117188 175.335938 C 261.144531 177.578125 262.066406 179.863281 262.886719 182.1875 C 263.703125 184.515625 264.410156 186.871094 265.007812 189.265625 C 265.609375 191.65625 266.097656 194.070312 266.472656 196.503906 C 266.847656 198.941406 267.109375 201.390625 267.261719 203.851562 L 255.503906 203.851562 C 255.191406 203.855469 254.886719 203.886719 254.582031 203.953125 C 254.277344 204.015625 253.984375 204.105469 253.699219 204.226562 C 253.414062 204.347656 253.140625 204.492188 252.882812 204.667969 C 252.628906 204.839844 252.390625 205.035156 252.171875 205.253906 C 251.953125 205.472656 251.753906 205.710938 251.582031 205.96875 C 251.410156 206.226562 251.261719 206.496094 251.144531 206.785156 C 251.023438 207.070312 250.933594 207.363281 250.867188 207.667969 C 250.804688 207.96875 250.773438 208.277344 250.769531 208.585938 Z M 239.269531 171.53125 C 239.015625 171.289062 238.738281 171.074219 238.441406 170.886719 C 238.148438 170.695312 237.835938 170.539062 237.511719 170.410156 C 237.183594 170.277344 236.847656 170.183594 236.503906 170.117188 C 236.160156 170.050781 235.8125 170.019531 235.460938 170.019531 C 235.109375 170.019531 234.761719 170.054688 234.417969 170.125 C 234.074219 170.191406 233.738281 170.289062 233.414062 170.421875 C 233.089844 170.554688 232.78125 170.714844 232.484375 170.90625 C 232.191406 171.09375 231.917969 171.3125 231.664062 171.554688 L 182.847656 220.410156 L 164.628906 199.402344 C 164.433594 199.089844 164.207031 198.804688 163.953125 198.542969 C 163.699219 198.277344 163.421875 198.042969 163.117188 197.835938 C 162.816406 197.628906 162.492188 197.457031 162.15625 197.316406 C 161.816406 197.175781 161.46875 197.070312 161.109375 197 C 160.75 196.929688 160.386719 196.898438 160.019531 196.902344 C 159.652344 196.90625 159.289062 196.949219 158.933594 197.027344 C 158.574219 197.105469 158.226562 197.21875 157.894531 197.371094 C 157.558594 197.519531 157.242188 197.703125 156.945312 197.914062 C 156.648438 198.128906 156.375 198.371094 156.128906 198.640625 C 155.878906 198.910156 155.660156 199.203125 155.472656 199.519531 C 155.285156 199.832031 155.128906 200.164062 155.011719 200.507812 C 154.890625 200.855469 154.804688 201.210938 154.757812 201.574219 C 154.707031 201.9375 154.699219 202.300781 154.722656 202.664062 C 154.75 203.03125 154.8125 203.390625 154.914062 203.742188 C 155.011719 204.09375 155.148438 204.433594 155.316406 204.757812 C 155.484375 205.085938 155.6875 205.390625 155.917969 205.671875 L 177.847656 231.734375 C 178.023438 231.988281 178.222656 232.21875 178.441406 232.433594 C 178.945312 232.933594 179.523438 233.320312 180.179688 233.589844 C 180.835938 233.863281 181.515625 233.996094 182.226562 233.996094 C 182.941406 233.996094 183.625 233.859375 184.285156 233.582031 C 184.941406 233.308594 185.523438 232.917969 186.027344 232.414062 L 239.296875 179.09375 C 239.542969 178.84375 239.761719 178.574219 239.953125 178.28125 C 240.148438 177.988281 240.308594 177.679688 240.441406 177.351562 C 240.574219 177.027344 240.671875 176.695312 240.738281 176.347656 C 240.808594 176.003906 240.839844 175.65625 240.839844 175.308594 C 240.839844 174.957031 240.804688 174.609375 240.734375 174.265625 C 240.664062 173.921875 240.5625 173.585938 240.429688 173.261719 C 240.296875 172.9375 240.132812 172.628906 239.9375 172.339844 C 239.742188 172.046875 239.523438 171.777344 239.273438 171.527344 Z M 209.710938 61.878906 L 164.433594 61.878906 L 164.433594 68.847656 L 209.710938 68.847656 Z M 291.910156 208.800781 C 291.90625 210.507812 291.867188 212.21875 291.78125 213.925781 C 291.695312 215.632812 291.570312 217.335938 291.402344 219.039062 C 291.234375 220.738281 291.023438 222.433594 290.773438 224.125 C 290.523438 225.816406 290.230469 227.5 289.894531 229.175781 C 289.5625 230.855469 289.1875 232.519531 288.769531 234.179688 C 288.355469 235.835938 287.898438 237.484375 287.402344 239.121094 C 286.90625 240.753906 286.367188 242.378906 285.792969 243.988281 C 285.214844 245.597656 284.597656 247.191406 283.945312 248.769531 C 283.289062 250.351562 282.597656 251.910156 281.867188 253.457031 C 281.132812 255.003906 280.363281 256.527344 279.558594 258.035156 C 278.753906 259.542969 277.910156 261.03125 277.03125 262.496094 C 276.152344 263.960938 275.234375 265.40625 274.285156 266.828125 C 273.335938 268.25 272.351562 269.644531 271.332031 271.019531 C 270.3125 272.390625 269.261719 273.738281 268.175781 275.058594 C 267.089844 276.378906 265.976562 277.675781 264.828125 278.941406 C 263.679688 280.207031 262.5 281.445312 261.289062 282.652344 C 260.082031 283.859375 258.84375 285.039062 257.574219 286.1875 C 256.308594 287.335938 255.015625 288.449219 253.691406 289.535156 C 252.371094 290.617188 251.023438 291.667969 249.648438 292.6875 C 248.277344 293.707031 246.878906 294.691406 245.457031 295.640625 C 244.035156 296.589844 242.589844 297.503906 241.125 298.382812 C 239.65625 299.257812 238.167969 300.101562 236.660156 300.90625 C 235.152344 301.710938 233.625 302.480469 232.082031 303.210938 C 230.535156 303.941406 228.972656 304.632812 227.390625 305.289062 C 225.8125 305.941406 224.21875 306.554688 222.609375 307.132812 C 221 307.707031 219.375 308.242188 217.738281 308.738281 C 216.101562 309.234375 214.457031 309.691406 212.796875 310.105469 C 211.136719 310.519531 209.46875 310.894531 207.792969 311.226562 C 206.117188 311.5625 204.433594 311.851562 202.742188 312.101562 C 201.050781 312.351562 199.355469 312.5625 197.652344 312.730469 C 195.949219 312.898438 194.246094 313.023438 192.539062 313.105469 C 190.832031 313.1875 189.121094 313.230469 187.414062 313.230469 C 185.703125 313.230469 183.996094 313.1875 182.285156 313.101562 C 180.578125 313.019531 178.875 312.894531 177.171875 312.726562 C 175.472656 312.558594 173.773438 312.347656 172.085938 312.097656 C 170.394531 311.84375 168.710938 311.554688 167.03125 311.21875 C 165.355469 310.886719 163.6875 310.511719 162.03125 310.09375 C 160.371094 309.679688 158.722656 309.222656 157.089844 308.726562 C 155.453125 308.230469 153.828125 307.695312 152.21875 307.117188 C 150.609375 306.542969 149.015625 305.925781 147.4375 305.273438 C 145.855469 304.617188 144.292969 303.925781 142.75 303.191406 C 141.203125 302.460938 139.675781 301.691406 138.167969 300.886719 C 136.660156 300.082031 135.175781 299.238281 133.707031 298.359375 C 132.242188 297.480469 130.796875 296.566406 129.375 295.617188 C 127.953125 294.664062 126.558594 293.679688 125.183594 292.664062 C 123.8125 291.644531 122.464844 290.59375 121.144531 289.507812 C 119.820312 288.421875 118.527344 287.308594 117.261719 286.160156 C 115.992188 285.011719 114.757812 283.832031 113.546875 282.621094 C 112.339844 281.414062 111.160156 280.175781 110.011719 278.910156 C 108.863281 277.640625 107.75 276.347656 106.664062 275.027344 C 105.578125 273.703125 104.527344 272.359375 103.507812 270.984375 C 102.492188 269.609375 101.507812 268.214844 100.558594 266.792969 C 99.609375 265.371094 98.695312 263.925781 97.816406 262.460938 C 96.9375 260.992188 96.09375 259.507812 95.289062 258 C 94.484375 256.492188 93.714844 254.964844 92.984375 253.417969 C 92.253906 251.875 91.558594 250.3125 90.90625 248.730469 C 90.253906 247.152344 89.636719 245.558594 89.0625 243.949219 C 88.484375 242.339844 87.949219 240.714844 87.453125 239.078125 C 86.957031 237.445312 86.5 235.796875 86.085938 234.136719 C 85.671875 232.480469 85.296875 230.8125 84.964844 229.136719 C 84.628906 227.460938 84.339844 225.777344 84.085938 224.085938 C 83.835938 222.394531 83.628906 220.699219 83.460938 218.996094 C 83.292969 217.292969 83.167969 215.589844 83.085938 213.882812 C 83 212.175781 82.957031 210.46875 82.957031 208.757812 C 82.957031 207.046875 83 205.339844 83.085938 203.632812 C 83.167969 201.925781 83.296875 200.21875 83.460938 198.519531 C 83.628906 196.816406 83.839844 195.121094 84.089844 193.429688 C 84.34375 191.738281 84.632812 190.054688 84.96875 188.378906 C 85.300781 186.703125 85.675781 185.035156 86.089844 183.378906 C 86.507812 181.71875 86.964844 180.070312 87.460938 178.4375 C 87.957031 176.800781 88.492188 175.175781 89.070312 173.566406 C 89.644531 171.957031 90.261719 170.363281 90.914062 168.785156 C 91.570312 167.207031 92.261719 165.644531 92.992188 164.097656 C 93.722656 162.550781 94.492188 161.027344 95.296875 159.519531 C 96.105469 158.011719 96.945312 156.523438 97.824219 155.058594 C 98.703125 153.589844 99.621094 152.148438 100.570312 150.726562 C 101.519531 149.304688 102.503906 147.90625 103.523438 146.535156 C 104.539062 145.160156 105.59375 143.816406 106.675781 142.492188 C 107.761719 141.171875 108.878906 139.878906 110.027344 138.613281 C 111.175781 137.34375 112.351562 136.105469 113.5625 134.898438 C 114.769531 133.691406 116.007812 132.511719 117.277344 131.363281 C 118.542969 130.214844 119.835938 129.097656 121.160156 128.015625 C 122.480469 126.929688 123.828125 125.878906 125.203125 124.859375 C 126.574219 123.84375 127.972656 122.859375 129.394531 121.910156 C 130.816406 120.960938 132.257812 120.042969 133.726562 119.167969 C 135.191406 118.289062 136.679688 117.445312 138.1875 116.640625 C 139.695312 115.832031 141.222656 115.066406 142.765625 114.335938 C 144.3125 113.601562 145.875 112.910156 147.457031 112.257812 C 149.035156 111.601562 150.628906 110.988281 152.238281 110.410156 C 153.847656 109.835938 155.472656 109.300781 157.109375 108.804688 C 158.742188 108.308594 160.390625 107.851562 162.050781 107.4375 C 163.707031 107.019531 165.375 106.644531 167.054688 106.3125 C 168.730469 105.980469 170.414062 105.6875 172.105469 105.4375 C 173.796875 105.1875 175.492188 104.976562 177.195312 104.808594 C 178.894531 104.640625 180.601562 104.515625 182.308594 104.433594 C 184.015625 104.347656 185.722656 104.304688 187.433594 104.304688 C 189.144531 104.308594 190.851562 104.351562 192.558594 104.4375 C 194.265625 104.523438 195.972656 104.652344 197.671875 104.820312 C 199.371094 104.988281 201.070312 105.199219 202.761719 105.453125 C 204.449219 105.707031 206.132812 106 207.8125 106.335938 C 209.488281 106.667969 211.15625 107.046875 212.8125 107.460938 C 214.46875 107.878906 216.117188 108.335938 217.753906 108.832031 C 219.386719 109.332031 221.011719 109.867188 222.621094 110.445312 C 224.230469 111.023438 225.824219 111.640625 227.402344 112.292969 C 228.980469 112.949219 230.542969 113.644531 232.089844 114.375 C 233.632812 115.105469 235.160156 115.875 236.667969 116.683594 C 238.171875 117.488281 239.660156 118.332031 241.125 119.210938 C 242.59375 120.089844 244.035156 121.003906 245.457031 121.957031 C 246.878906 122.90625 248.273438 123.890625 249.648438 124.910156 C 251.019531 125.929688 252.367188 126.980469 253.6875 128.066406 C 255.011719 129.148438 256.304688 130.265625 257.570312 131.414062 C 258.835938 132.5625 260.074219 133.742188 261.28125 134.949219 C 262.492188 136.160156 263.667969 137.398438 264.816406 138.664062 C 265.964844 139.929688 267.082031 141.222656 268.167969 142.546875 C 269.25 143.867188 270.300781 145.214844 271.320312 146.585938 C 272.339844 147.960938 273.324219 149.355469 274.273438 150.777344 C 275.222656 152.199219 276.136719 153.644531 277.015625 155.109375 C 277.894531 156.574219 278.738281 158.0625 279.546875 159.570312 C 280.351562 161.074219 281.121094 162.601562 281.851562 164.148438 C 282.582031 165.691406 283.277344 167.253906 283.929688 168.832031 C 284.585938 170.414062 285.203125 172.007812 285.777344 173.617188 C 286.355469 175.226562 286.890625 176.847656 287.390625 178.484375 C 287.886719 180.117188 288.34375 181.765625 288.757812 183.421875 C 289.175781 185.082031 289.550781 186.746094 289.886719 188.425781 C 290.21875 190.101562 290.511719 191.785156 290.765625 193.476562 C 291.015625 195.164062 291.226562 196.859375 291.398438 198.5625 C 291.566406 200.261719 291.691406 201.96875 291.777344 203.675781 C 291.863281 205.382812 291.90625 207.089844 291.910156 208.800781 Z M 277.136719 208.628906 C 277.136719 207.160156 277.101562 205.695312 277.03125 204.226562 C 276.957031 202.761719 276.851562 201.296875 276.707031 199.835938 C 276.5625 198.375 276.382812 196.917969 276.167969 195.46875 C 275.953125 194.015625 275.703125 192.570312 275.414062 191.128906 C 275.128906 189.691406 274.808594 188.257812 274.449219 186.835938 C 274.09375 185.410156 273.703125 183.996094 273.277344 182.589844 C 272.851562 181.1875 272.390625 179.792969 271.894531 178.410156 C 271.402344 177.027344 270.871094 175.660156 270.3125 174.304688 C 269.75 172.949219 269.15625 171.605469 268.527344 170.277344 C 267.898438 168.953125 267.238281 167.640625 266.546875 166.347656 C 265.855469 165.050781 265.132812 163.773438 264.378906 162.515625 C 263.621094 161.257812 262.835938 160.015625 262.023438 158.796875 C 261.207031 157.574219 260.359375 156.375 259.488281 155.195312 C 258.613281 154.019531 257.710938 152.859375 256.777344 151.726562 C 255.847656 150.589844 254.886719 149.480469 253.902344 148.394531 C 252.917969 147.304688 251.90625 146.242188 250.867188 145.203125 C 249.828125 144.167969 248.765625 143.152344 247.675781 142.167969 C 246.589844 141.183594 245.480469 140.222656 244.34375 139.292969 C 243.207031 138.363281 242.050781 137.457031 240.871094 136.585938 C 239.695312 135.710938 238.492188 134.863281 237.273438 134.050781 C 236.050781 133.234375 234.8125 132.449219 233.554688 131.695312 C 232.292969 130.9375 231.015625 130.214844 229.722656 129.523438 C 228.425781 128.832031 227.117188 128.171875 225.789062 127.542969 C 224.460938 126.917969 223.121094 126.320312 221.765625 125.761719 C 220.40625 125.199219 219.039062 124.671875 217.65625 124.175781 C 216.273438 123.679688 214.878906 123.21875 213.476562 122.792969 C 212.070312 122.367188 210.65625 121.976562 209.230469 121.621094 C 207.808594 121.261719 206.375 120.941406 204.9375 120.65625 C 203.496094 120.367188 202.050781 120.117188 200.597656 119.902344 C 199.144531 119.6875 197.691406 119.507812 196.226562 119.363281 C 194.765625 119.21875 193.304688 119.113281 191.835938 119.039062 C 190.371094 118.96875 188.902344 118.929688 187.4375 118.929688 C 185.96875 118.929688 184.5 118.96875 183.035156 119.039062 C 181.566406 119.113281 180.105469 119.21875 178.644531 119.363281 C 177.183594 119.507812 175.726562 119.6875 174.273438 119.902344 C 172.820312 120.117188 171.375 120.367188 169.933594 120.65625 C 168.496094 120.941406 167.0625 121.261719 165.640625 121.621094 C 164.214844 121.976562 162.800781 122.367188 161.394531 122.792969 C 159.992188 123.21875 158.597656 123.679688 157.214844 124.175781 C 155.832031 124.667969 154.460938 125.195312 153.105469 125.757812 C 151.75 126.320312 150.410156 126.914062 149.082031 127.542969 C 147.753906 128.171875 146.441406 128.828125 145.148438 129.523438 C 143.855469 130.214844 142.578125 130.9375 141.316406 131.691406 C 140.058594 132.445312 138.816406 133.230469 137.597656 134.046875 C 136.375 134.863281 135.175781 135.707031 133.996094 136.582031 C 132.816406 137.457031 131.660156 138.359375 130.527344 139.289062 C 129.390625 140.222656 128.28125 141.179688 127.191406 142.167969 C 126.105469 143.152344 125.042969 144.164062 124.003906 145.203125 C 122.964844 146.238281 121.953125 147.300781 120.96875 148.390625 C 119.980469 149.476562 119.023438 150.589844 118.089844 151.722656 C 117.160156 152.859375 116.257812 154.015625 115.382812 155.195312 C 114.507812 156.375 113.664062 157.574219 112.847656 158.792969 C 112.03125 160.015625 111.246094 161.253906 110.492188 162.511719 C 109.738281 163.773438 109.011719 165.050781 108.320312 166.34375 C 107.628906 167.636719 106.96875 168.949219 106.339844 170.277344 C 105.714844 171.601562 105.121094 172.945312 104.558594 174.300781 C 103.996094 175.65625 103.46875 177.027344 102.972656 178.40625 C 102.476562 179.789062 102.019531 181.183594 101.589844 182.589844 C 101.164062 183.992188 100.773438 185.40625 100.417969 186.832031 C 100.058594 188.253906 99.738281 189.6875 99.453125 191.125 C 99.167969 192.566406 98.914062 194.011719 98.699219 195.464844 C 98.484375 196.917969 98.304688 198.371094 98.160156 199.832031 C 98.015625 201.292969 97.910156 202.757812 97.835938 204.222656 C 97.765625 205.691406 97.730469 207.15625 97.730469 208.625 C 97.730469 210.09375 97.765625 211.558594 97.835938 213.027344 C 97.910156 214.492188 98.015625 215.957031 98.160156 217.417969 C 98.304688 218.878906 98.484375 220.332031 98.699219 221.785156 C 98.914062 223.238281 99.164062 224.683594 99.453125 226.125 C 99.738281 227.5625 100.058594 228.996094 100.417969 230.417969 C 100.773438 231.84375 101.164062 233.257812 101.589844 234.660156 C 102.015625 236.066406 102.476562 237.460938 102.972656 238.84375 C 103.46875 240.222656 103.996094 241.59375 104.558594 242.949219 C 105.117188 244.304688 105.714844 245.648438 106.339844 246.972656 C 106.96875 248.300781 107.628906 249.613281 108.320312 250.90625 C 109.011719 252.199219 109.734375 253.476562 110.492188 254.738281 C 111.246094 255.996094 112.03125 257.234375 112.847656 258.457031 C 113.660156 259.675781 114.507812 260.875 115.382812 262.054688 C 116.257812 263.234375 117.160156 264.390625 118.089844 265.527344 C 119.023438 266.660156 119.980469 267.773438 120.964844 268.859375 C 121.953125 269.949219 122.964844 271.011719 124.003906 272.046875 C 125.039062 273.085938 126.101562 274.097656 127.191406 275.082031 C 128.277344 276.070312 129.390625 277.027344 130.523438 277.960938 C 131.660156 278.890625 132.816406 279.792969 133.996094 280.667969 C 135.175781 281.542969 136.375 282.386719 137.597656 283.203125 C 138.816406 284.019531 140.054688 284.804688 141.316406 285.558594 C 142.574219 286.3125 143.851562 287.035156 145.148438 287.726562 C 146.441406 288.421875 147.753906 289.078125 149.078125 289.707031 C 150.40625 290.335938 151.75 290.929688 153.105469 291.492188 C 154.460938 292.054688 155.832031 292.582031 157.210938 293.074219 C 158.59375 293.570312 159.988281 294.03125 161.394531 294.457031 C 162.796875 294.882812 164.210938 295.273438 165.636719 295.632812 C 167.0625 295.988281 168.492188 296.308594 169.933594 296.59375 C 171.371094 296.882812 172.820312 297.132812 174.269531 297.347656 C 175.722656 297.5625 177.179688 297.742188 178.640625 297.886719 C 180.101562 298.03125 181.566406 298.140625 183.03125 298.210938 C 184.5 298.28125 185.964844 298.320312 187.433594 298.320312 C 188.902344 298.316406 190.367188 298.28125 191.832031 298.207031 C 193.300781 298.132812 194.761719 298.023438 196.222656 297.878906 C 197.683594 297.730469 199.136719 297.550781 200.589844 297.332031 C 202.042969 297.117188 203.488281 296.863281 204.925781 296.578125 C 206.363281 296.289062 207.796875 295.96875 209.21875 295.609375 C 210.644531 295.25 212.054688 294.859375 213.460938 294.433594 C 214.863281 294.003906 216.257812 293.542969 217.636719 293.046875 C 219.019531 292.554688 220.386719 292.023438 221.742188 291.460938 C 223.097656 290.898438 224.441406 290.304688 225.765625 289.675781 C 227.09375 289.046875 228.402344 288.386719 229.695312 287.695312 C 230.992188 287.003906 232.265625 286.28125 233.527344 285.523438 C 234.785156 284.769531 236.023438 283.984375 237.242188 283.167969 C 238.464844 282.355469 239.664062 281.507812 240.839844 280.632812 C 242.019531 279.761719 243.175781 278.855469 244.308594 277.925781 C 245.445312 276.996094 246.554688 276.035156 247.644531 275.050781 C 248.730469 274.066406 249.792969 273.054688 250.832031 272.015625 C 251.867188 270.980469 252.878906 269.917969 253.867188 268.828125 C 254.851562 267.742188 255.808594 266.632812 256.742188 265.496094 C 257.671875 264.363281 258.574219 263.207031 259.449219 262.027344 C 260.324219 260.851562 261.167969 259.652344 261.984375 258.433594 C 262.800781 257.210938 263.585938 255.972656 264.339844 254.714844 C 265.097656 253.457031 265.820312 252.179688 266.511719 250.886719 C 267.203125 249.59375 267.863281 248.28125 268.492188 246.957031 C 269.121094 245.628906 269.714844 244.289062 270.277344 242.933594 C 270.839844 241.578125 271.371094 240.210938 271.867188 238.828125 C 272.363281 237.449219 272.824219 236.054688 273.25 234.652344 C 273.675781 233.25 274.070312 231.835938 274.425781 230.410156 C 274.785156 228.988281 275.109375 227.558594 275.394531 226.117188 C 275.683594 224.679688 275.933594 223.234375 276.152344 221.785156 C 276.371094 220.332031 276.550781 218.875 276.695312 217.417969 C 276.839844 215.957031 276.949219 214.492188 277.023438 213.027344 C 277.097656 211.5625 277.136719 210.097656 277.136719 208.628906 Z M 277.136719 208.628906 " fill-opacity="1" fill-rule="nonzero"/></g></svg>