<svg xmlns="http://www.w3.org/2000/svg" xmlns:xlink="http://www.w3.org/1999/xlink" width="500" zoomAndPan="magnify" viewBox="0 0 375 374.999991" height="500" preserveAspectRatio="xMidYMid meet" version="1.0"><defs><clipPath id="e92f81e555"><path d="M 120 82 L 254.859375 82 L 254.859375 294 L 120 294 Z M 120 82 " clip-rule="nonzero"/></clipPath></defs><g clip-path="url(#e92f81e555)"><path fill="#a993ec" d="M 128.320312 196.035156 L 206.652344 89.503906 C 206.734375 89.394531 206.886719 89.199219 207.175781 89.199219 C 207.269531 89.199219 207.378906 89.226562 207.519531 89.28125 C 208.039062 89.515625 207.957031 89.902344 207.917969 90.082031 L 190.957031 169.4375 C 190.722656 170.480469 190.984375 171.566406 191.65625 172.394531 C 192.316406 173.21875 193.332031 173.699219 194.390625 173.699219 L 243.457031 173.699219 C 244.859375 173.699219 246.078125 174.441406 246.726562 175.707031 C 247.355469 176.960938 247.234375 178.390625 246.394531 179.53125 L 168.0625 286.0625 C 167.953125 286.214844 167.734375 286.53125 167.199219 286.285156 C 166.675781 286.050781 166.757812 285.664062 166.800781 285.484375 L 183.761719 206.128906 C 183.992188 205.085938 183.734375 204 183.058594 203.171875 C 182.402344 202.347656 181.382812 201.867188 180.328125 201.867188 L 131.257812 201.867188 C 129.859375 201.867188 128.636719 201.125 127.992188 199.859375 C 127.359375 198.605469 127.484375 197.175781 128.320312 196.035156 Z M 131.257812 208.910156 L 175.988281 208.910156 L 159.917969 284.015625 C 159.136719 287.671875 160.894531 291.167969 164.3125 292.707031 C 165.386719 293.1875 166.496094 293.421875 167.570312 293.421875 C 169.945312 293.421875 172.195312 292.308594 173.722656 290.230469 L 252.054688 183.710938 C 254.472656 180.4375 254.828125 176.148438 252.988281 172.53125 C 251.160156 168.914062 247.507812 166.660156 243.457031 166.660156 L 198.730469 166.660156 L 214.796875 91.550781 C 215.578125 87.894531 213.808594 84.402344 210.402344 82.859375 C 206.984375 81.320312 203.207031 82.308594 200.996094 85.335938 L 122.664062 191.855469 C 120.246094 195.128906 119.886719 199.40625 121.730469 203.035156 C 123.554688 206.652344 127.207031 208.910156 131.257812 208.910156 " fill-opacity="1" fill-rule="nonzero"/></g></svg>